leg39_CMCTool_states
nRows=5
nColumns=41

# SIMM Motion File Header:
name leg39_CMCTool_states
datacolumns 41
datarows 5
otherdata 1
range 0.30075000000000002000 0.30174999999999991000
endheader
time	pelvis_tilt	hip_angle_r	knee_angle_r	tib_tx_r	tib_ty_r	pat_angle_r	pat_tx_r	pat_ty_r	ankle_angle_r	subtalar_angle_r	mtp_angle_r	pelvis_tilt_u	hip_angle_r_u	knee_angle_r_u	tib_tx_r_u	tib_ty_r_u	pat_angle_r_u	pat_tx_r_u	pat_ty_r_u	ankle_angle_r_u	subtalar_angle_r_u	mtp_angle_r_u	bifemlh_r.activation	bifemlh_r.fiber_length	bifemsh_r.activation	bifemsh_r.fiber_length	glut_max2_r.activation	glut_max2_r.fiber_length	psoas_r.activation	psoas_r.fiber_length	rect_fem_r.activation	rect_fem_r.fiber_length	vas_int_r.activation	vas_int_r.fiber_length	med_gas_r.activation	med_gas_r.fiber_length	soleus_r.activation	soleus_r.fiber_length	tib_ant_r.activation	tib_ant_r.fiber_length
      0.30075000000000002000	      0.00000000000005571926	     24.61962279036559000000	    -20.46774346728938500000	     -0.00106218401128340310	     -0.46676015719074615000	     13.74263937641310000000	      0.05262056087054412700	     -0.02459033165104746600	      6.80403749572402280000	      0.00000000000001030921	      0.00000000000010534915	      0.00000000000022381980	    -32.47771966864419800000	    380.47337201430173000000	     -0.09008040146914603200	      0.05355842174173780500	   -102.29607693887097000000	      0.06742453184102943600	     -0.01578584190879125900	     29.05587134016972000000	      0.00000000000007009215	      0.00000000000096172053	      0.13722848292291401000	      0.11936815436124178000	      0.02321504627315327700	      0.18829057095338478000	      0.07948795704454048000	      0.11463363754000812000	      0.05214543233560060100	      0.08887454004472868100	      0.03436216792789787600	      0.11533315891522473000	      0.09451277578351080500	      0.09628781713387202200	      0.02010772841167558400	      0.10207696380371181000	      0.01999999999999993400	      0.09546563602050794900	      0.33116457217948342000	      0.08146409847069058200
      0.30099999999999999000	      0.00000000000005577503	     24.61148968559120900000	    -20.37266891557975900000	     -0.00108472885472647590	     -0.46674679746271214000	     13.71696251523604100000	      0.05263738469957973700	     -0.02459427241489945500	      6.81130181249185010000	      0.00000000000001032631	      0.00000000000010559081	      0.00000000000022590913	    -32.58685962732229100000	    380.12208341866341000000	     -0.09027817625294987100	      0.05331934702129377500	   -103.11933541074519000000	      0.06716593124801058200	     -0.01574020018239051900	     29.05868648801701000000	      0.00000000000006868983	      0.00000000000096682871	      0.13775184714675348000	      0.11941353170163774000	      0.02319501489722788200	      0.18834237544422855000	      0.07929635653353142600	      0.11462447440423176000	      0.05194514991827563900	      0.08888375936789980100	      0.03428514532480678200	      0.11525081379488725000	      0.09411823311886938200	      0.09620252581004923300	      0.02010705720879737300	      0.10212468033140995000	      0.01999999999999993400	      0.09547153543009083400	      0.33107029760322854000	      0.08145861802577274200
      0.30124999999999996000	      0.00000000000005583083	     24.60332949316253700000	    -20.27768291395382100000	     -0.00110732301144081720	     -0.46673349754587157000	     13.69107945339242600000	      0.05265414375048029600	     -0.02459820171652001400	      6.81856684837030350000	      0.00000000000001034347	      0.00000000000010583142	      0.00000000000022128218	    -32.69440810715657600000	    379.76493487753447000000	     -0.09047489516253684500	      0.05307992899255301700	   -103.94565657731717000000	      0.06690630275652663400	     -0.01569414309647516900	     29.06161430802735200000	      0.00000000000007216760	      0.00000000000095082374	      0.13826228946192526000	      0.11945877639588771000	      0.02317510832697785800	      0.18839410557561762000	      0.07910594979130124200	      0.11461553208528992000	      0.05174611536242818700	      0.08889299372985001700	      0.03420860261176584400	      0.11516855684628091000	      0.09372614865599633600	      0.09611749380353269700	      0.02010639018785498300	      0.10217239485601472000	      0.01999999999999993400	      0.09547743152753841700	      0.33097661040560422000	      0.08145315064951450000
      0.30149999999999993000	      0.00000000000005588653	     24.59514262016379100000	    -20.18278695326794600000	     -0.00112996620841558730	     -0.46672025752822466000	     13.66498944421646800000	      0.05267083776355369100	     -0.02460211945141471300	      6.82583262320832600000	      0.00000000000001036196	      0.00000000000010606742	      0.00000000000022463162	    -32.80029290091535200000	    379.40172524729888000000	     -0.09067048709897095000	      0.05284015116514879200	   -104.77488940282549000000	      0.06664562574765137100	     -0.01564766567451318000	     29.06458483863938000000	      0.00000000000007624815	      0.00000000000094106682	      0.13876012891148962000	      0.11950393380711753000	      0.02315532578480027100	      0.18844576057132453000	      0.07891672938006237500	      0.11460679402369113000	      0.05154832089324562500	      0.08890224283862362100	      0.03413253679881560900	      0.11508638838100203000	      0.09333650707904250800	      0.09603270423460645600	      0.02010572732279282400	      0.10222010664099726000	      0.01999999999999993400	      0.09548332450547049300	      0.33088350692694241000	      0.08144769587757094700
      0.30174999999999991000	      0.00000000000005594259	     24.58692949064054300000	    -20.08798257050418100000	     -0.00115265815575257680	     -0.46670707750125567000	     13.63869177806742000000	      0.05268746647475404400	     -0.02460602551403090500	      6.83309913701503380000	      0.00000000000001038090	      0.00000000000010630286	      0.00000000000022260683	    -32.90445036353975200000	    379.03228587689028000000	     -0.09086488789755019200	      0.05260000202958272500	   -105.60688857972180000000	      0.06638388585465510000	     -0.01560076439218133600	     29.06751013189515800000	      0.00000000000007699517	      0.00000000000094122356	      0.13924567666130566000	      0.11954903946243868000	      0.02313566649793705900	      0.18849733962169427000	      0.07872868790836846900	      0.11459824483133389000	      0.05135175878435636200	      0.08891150639858697000	      0.03405694491462558900	      0.11500430874031617000	      0.09294929316758428200	      0.09594814172689095100	      0.02010506858771764600	      0.10226781491399124000	      0.01999999999999993400	      0.09548921454616562900	      0.33079098353037667000	      0.08144225325907272800
